<?xml version="1.0" encoding="UTF-8" standalone="no"?>
<!-- Created with Inkscape (http://www.inkscape.org/) -->

<svg
   xmlns:dc="http://purl.org/dc/elements/1.1/"
   xmlns:cc="http://creativecommons.org/ns#"
   xmlns:rdf="http://www.w3.org/1999/02/22-rdf-syntax-ns#"
   xmlns:svg="http://www.w3.org/2000/svg"
   xmlns="http://www.w3.org/2000/svg"
   xmlns:sodipodi="http://sodipodi.sourceforge.net/DTD/sodipodi-0.dtd"
   xmlns:inkscape="http://www.inkscape.org/namespaces/inkscape"
   width="206.81926mm"
   height="32.303467mm"
   viewBox="0 0 206.81926 32.303467"
   version="1.1"
   id="svg1163"
   inkscape:version="0.92.2 (5c3e80d, 2017-08-06)"
   sodipodi:docname="plank.svg">
  <defs
     id="defs1157" />
  <sodipodi:namedview
     id="base"
     pagecolor="#ffffff"
     bordercolor="#666666"
     borderopacity="1.0"
     inkscape:pageopacity="0.0"
     inkscape:pageshadow="2"
     inkscape:zoom="0.98994949"
     inkscape:cx="129.38576"
     inkscape:cy="-195.61185"
     inkscape:document-units="mm"
     inkscape:current-layer="layer1"
     showgrid="false"
     fit-margin-top="0"
     fit-margin-left="0"
     fit-margin-right="0"
     fit-margin-bottom="0"
     inkscape:window-width="1920"
     inkscape:window-height="1001"
     inkscape:window-x="-9"
     inkscape:window-y="-9"
     inkscape:window-maximized="1" />
  <metadata
     id="metadata1160">
    <rdf:RDF>
      <cc:Work
         rdf:about="">
        <dc:format>image/svg+xml</dc:format>
        <dc:type
           rdf:resource="http://purl.org/dc/dcmitype/StillImage" />
        <dc:title></dc:title>
      </cc:Work>
    </rdf:RDF>
  </metadata>
  <g
     inkscape:label="Layer 1"
     inkscape:groupmode="layer"
     id="layer1"
     transform="translate(-0.05125119,-64.774233)">
    <g
       transform="matrix(0.18627111,0,0,-0.35599018,414.52375,-318.33911)"
       id="g1402-5-6"
       style="stroke-width:0.72335875">
      <path
         inkscape:connector-curvature="0"
         id="path1100-0-0-0-0"
         d="m -2038.6032,-1115.8755 c -8.8431,0.3818 -17.7245,0.4994 -26.4987,1.7773 -3.5088,0.5295 -6.9731,1.3076 -10.4533,1.9928 -2.8206,0.566 -5.5632,1.4442 -8.3429,2.1733 -0.5639,0.3046 -0.3107,1.2453 0.2787,1.3539 0.8926,0.2739 1.8277,0.3621 2.7349,0.5754 3.1296,0.6321 6.2949,1.0609 9.4631,1.4445 12.2844,1.5131 24.5598,3.1845 36.9142,4.026 2.3454,0.175 4.6966,0.2562 7.0427,0.4185 1.3564,0.1047 2.7019,0.3417 4.0028,0.743 2.4727,0.7144 4.8899,1.6301 7.4157,2.1523 5.2442,1.1539 10.5768,1.8347 15.9009,2.4975 7.5397,0.9097 15.0699,1.8965 22.6097,2.8048 2.5295,0.309 5.0769,0.4321 7.6165,0.6299 3.1529,0.2232 6.3054,0.4906 9.4338,0.9504 4.2495,0.5331 8.5462,0.7085 12.8234,0.4668 6.3762,-0.1691 12.7532,-0.3939 19.1326,-0.3384 3.3111,0.3943 6.3228,1.9375 9.5284,2.7533 2.596,0.7008 5.3089,0.8931 7.9874,0.7315 6.7738,-0.1645 13.5162,-0.8865 20.2599,-1.4948 10.3354,-0.9954 20.6692,-2.0119 31.0193,-2.8436 4.6254,-0.4225 9.2551,-0.9731 13.7754,-2.0703 0.8417,-0.3818 0.699,-1.8367 -0.1992,-2.0507 -5.4723,-2.0894 -10.9863,-4.0772 -16.5756,-5.8325 -5.4325,-1.6773 -10.9648,-3.0236 -16.5524,-4.0711 -6.6646,-1.3444 -13.3714,-2.5016 -19.9666,-4.1681 -3.6476,-0.8695 -7.2998,-1.7388 -11,-2.3557 -3.9506,-0.6154 -7.9412,-0.919 -11.9268,-1.2015 -5.893,-0.3766 -11.806,-0.4322 -17.7047,-0.1609 -6.1763,0.1967 -12.3597,0.2466 -18.5357,0.01 -17.3399,-0.3578 -34.6827,-0.5477 -52.0249,-0.7584 -9.3859,-0.1 -18.7721,-0.1685 -28.1586,-0.1538 z m 13.8516,1.8945 c 5.107,0.039 10.2136,0.1271 15.3204,0.1918 20.1819,0.2796 40.363,0.6134 60.5447,0.908 4.983,0.059 9.9661,-0.057 14.9456,-0.2372 4.7839,-0.1497 9.5873,-0.097 14.3426,0.4934 4.6185,0.5097 9.2388,1.0651 13.7999,1.9654 2.8565,0.6129 5.6733,1.3988 8.5326,2.001 2.6733,0.5839 5.3755,1.0218 8.055,1.5753 3.8701,0.7653 7.7397,1.5468 11.5645,2.5171 4.6651,1.2344 9.2218,2.8351 13.8559,4.1761 4.4658,1.3179 8.9547,2.5553 13.4352,3.8212 0.3578,-0.1709 0.6105,0.5442 0.2012,0.6016 -2.9044,0.3561 -5.8255,0.5467 -8.7369,0.8356 -13.9865,1.2637 -27.9697,2.5652 -41.952,3.8752 -5.4541,0.4607 -10.9575,0.7393 -16.4127,0.1427 -3.7788,-0.8711 -7.3188,-2.6279 -11.1796,-3.1679 -5.5908,-0.1828 -11.177,0.2236 -16.7668,0.2543 -6.1657,0.1528 -12.3625,0.1428 -18.4836,-0.7028 -4.1783,-0.4923 -8.3736,-0.8395 -12.576,-1.038 -7.2281,-0.5737 -14.4047,-1.6351 -21.6093,-2.4306 -8.1531,-1.0699 -16.28,-2.4965 -24.1903,-4.7729 -2.6962,-0.757 -5.4576,-1.4127 -8.2744,-1.4085 -3.3123,-0.119 -6.6448,-0.1277 -9.9212,-0.6879 -10.9229,-1.4467 -21.8778,-2.6355 -32.8331,-3.8054 -1.9002,-0.1949 -3.8028,-0.3652 -5.7047,-0.543 0,-0.3451 0.4411,-0.3435 0.69,-0.3826 4.1034,-0.8226 8.2162,-1.6899 12.401,-1.9671 3.7679,-0.4546 7.5188,-1.0958 11.3148,-1.2766 5.5576,-0.4351 11.1244,-0.8427 16.7023,-0.8378 4.3113,-0.069 8.623,-0.1182 12.9349,-0.1004 z"
         style="color:#000000;font-style:normal;font-variant:normal;font-weight:normal;font-stretch:normal;font-size:medium;line-height:normal;font-family:sans-serif;font-variant-ligatures:normal;font-variant-position:normal;font-variant-caps:normal;font-variant-numeric:normal;font-variant-alternates:normal;font-feature-settings:normal;text-indent:0;text-align:start;text-decoration:none;text-decoration-line:none;text-decoration-style:solid;text-decoration-color:#000000;letter-spacing:normal;word-spacing:normal;text-transform:none;writing-mode:lr-tb;direction:ltr;text-orientation:mixed;dominant-baseline:auto;baseline-shift:baseline;text-anchor:start;white-space:normal;shape-padding:0;clip-rule:nonzero;display:inline;overflow:visible;visibility:visible;opacity:1;isolation:auto;mix-blend-mode:normal;color-interpolation:sRGB;color-interpolation-filters:linearRGB;solid-color:#000000;solid-opacity:1;vector-effect:none;fill:#000000;fill-opacity:1;fill-rule:nonzero;stroke:none;stroke-width:1.4467175;stroke-linecap:butt;stroke-linejoin:miter;stroke-miterlimit:4;stroke-dasharray:none;stroke-dashoffset:0;stroke-opacity:1;color-rendering:auto;image-rendering:auto;shape-rendering:auto;text-rendering:auto;enable-background:accumulate" />
      <path
         inkscape:connector-curvature="0"
         id="path1100-8-1-6-0-6"
         d="m -1973.6969,-1112.0083 c -4.5541,1.4317 -9.3902,1.6731 -14.1291,1.4124 -8.2601,-0.4599 -16.5111,-1.1332 -24.7841,-1.3237 -4.9249,0.029 -9.8465,0.2341 -14.7672,0.4229 -4.6842,0.2177 -9.3677,0.5512 -14.0149,1.1915 -0.8433,0.2463 -0.969,1.6266 -0.1641,2 1.4298,0.4431 2.9406,0.4695 4.4078,0.7186 12.0783,1.5645 24.1545,3.1576 36.2641,4.4638 2.4011,0.201 4.8314,0.4122 7.1303,1.1813 5.0342,1.4211 10.2415,2.2209 15.4673,2.4186 2.3139,0.023 4.5977,-0.4391 6.9075,-0.5063 1.2844,-0.038 2.6046,-0.01 3.8204,0.4566 1.928,0.6557 3.7514,1.7267 5.8193,1.8839 5.6886,0.6589 11.4166,1.3127 17.1514,0.9729 5.4442,-0.2417 10.8521,-0.9965 16.2966,-1.2285 3.9933,0.051 7.85,1.1996 11.7109,2.0908 3.3982,0.8091 6.9314,1.3729 10.4215,0.8783 4.5324,-0.5416 9.0046,-1.5386 13.5624,-1.8769 4.6394,-0.4452 9.3113,-0.9431 13.7926,-2.2848 0.2301,-0.05 0.5942,-0.1295 0.5721,-0.4339 -0.1397,-0.369 -0.6032,-0.3744 -0.8969,-0.563 -3.285,-1.5081 -6.8115,-2.3646 -10.3072,-3.2253 -2.072,-0.507 -4.1153,-1.1208 -6.1573,-1.7351 -2.9985,-0.8532 -6.0569,-1.484 -9.1453,-1.8911 -1.9473,-0.2694 -3.8967,-0.5372 -5.8173,-0.9636 -1.996,-0.3977 -3.9553,-0.9587 -5.9508,-1.3565 -2.465,-0.4676 -4.9511,-0.8132 -7.432,-1.1842 -2.8486,-0.3998 -5.7348,-0.5527 -8.608,-0.3813 -3.668,0.1544 -7.2915,0.7919 -10.9415,1.138 -4.7462,0.3354 -9.5031,0.022 -14.2514,-0.085 -5.1588,-0.2107 -10.2845,-0.8992 -15.3731,-1.7474 -0.2386,-0.087 -0.2844,-0.485 -0.584,-0.4433 z m -40.0489,2.3008 c 3.5766,0.012 7.157,-0.077 10.7289,0.153 5.4532,0.285 10.8998,0.7087 16.3597,0.8544 2.7352,0.07 5.4774,0.089 8.2071,-0.1175 2.2229,-0.2585 4.4726,-0.7847 6.7122,-0.3801 5.6726,0.8136 11.364,1.6798 17.1079,1.71 5.2679,0.1156 10.5787,0.2357 15.7943,-0.6466 3.6464,-0.5761 7.3491,-1.0644 11.0454,-0.7366 3.8101,0.2559 7.5639,1.0312 11.2502,2.0031 3.4351,0.8382 6.9553,1.2537 10.4038,2.0292 2.2007,0.4993 4.4173,0.9224 6.6339,1.3443 3.7849,0.7503 7.5751,1.4774 11.3357,2.3434 1.7454,0.3917 3.498,0.751 5.2587,1.0664 0.2536,-0.095 0.6022,0.1584 0.5001,0.4375 -0.5378,0.3265 -1.185,0.066 -1.7671,0.1872 -7.227,0.225 -14.3523,1.544 -21.501,2.5142 -3.4384,0.385 -6.9414,0.096 -10.2856,-0.7805 -3.9088,-0.9082 -7.8019,-2.1135 -11.8454,-2.2 -3.4288,-0.054 -6.8269,0.485 -10.2382,0.7446 -5.0598,0.4851 -10.1616,0.6793 -15.234,0.2694 -3.469,-0.2315 -6.9387,-0.6108 -10.3387,-1.3518 -1.7977,-0.5772 -3.403,-1.7659 -5.3272,-1.9221 -2.6606,-0.1392 -5.2863,0.4181 -7.9308,0.6013 -2.3485,0.2155 -4.7258,0.1284 -7.0465,-0.2972 -4.5498,-0.6598 -8.9677,-1.9705 -13.4534,-2.9404 -3.6188,-0.437 -7.2988,-0.2408 -10.8886,-0.9385 -8.665,-1.1521 -17.33,-2.3043 -25.995,-3.4565 6.8323,-0.3253 13.6726,-0.5619 20.5136,-0.4902 z"
         style="color:#000000;font-style:normal;font-variant:normal;font-weight:normal;font-stretch:normal;font-size:medium;line-height:normal;font-family:sans-serif;font-variant-ligatures:normal;font-variant-position:normal;font-variant-caps:normal;font-variant-numeric:normal;font-variant-alternates:normal;font-feature-settings:normal;text-indent:0;text-align:start;text-decoration:none;text-decoration-line:none;text-decoration-style:solid;text-decoration-color:#000000;letter-spacing:normal;word-spacing:normal;text-transform:none;writing-mode:lr-tb;direction:ltr;text-orientation:mixed;dominant-baseline:auto;baseline-shift:baseline;text-anchor:start;white-space:normal;shape-padding:0;clip-rule:nonzero;display:inline;overflow:visible;visibility:visible;opacity:1;isolation:auto;mix-blend-mode:normal;color-interpolation:sRGB;color-interpolation-filters:linearRGB;solid-color:#000000;solid-opacity:1;vector-effect:none;fill:#000000;fill-opacity:1;fill-rule:nonzero;stroke:none;stroke-width:1.4467175;stroke-linecap:butt;stroke-linejoin:miter;stroke-miterlimit:4;stroke-dasharray:none;stroke-dashoffset:0;stroke-opacity:1;color-rendering:auto;image-rendering:auto;shape-rendering:auto;text-rendering:auto;enable-background:accumulate" />
      <path
         inkscape:connector-curvature="0"
         id="path1118-7-5-2-0"
         d="m -1975.7614,-1107.8325 c -3.5511,0.3251 -7.0674,0.935 -10.6054,1.3672 -0.5603,0.1347 -0.4102,1.1324 0.177,1.0696 4.8936,0.37 9.813,-0.5666 14.692,0.1257 3.5537,0.6561 6.9737,1.9921 10.598,2.2641 5.1886,0.6529 10.4164,1.4149 15.6586,1.0398 4.3081,-0.3488 8.5481,-1.4953 12.8928,-1.3601 4.148,0.2517 8.0814,1.8919 12.2435,2.0317 2.6895,0.14 5.3733,0.3839 8.0404,0.7587 1.4619,0.1819 2.9184,0.4331 4.3906,0.5129 1.4025,0.046 2.8187,-0.093 4.1664,-0.4952 0.4278,-0.2386 0.1215,-1.0057 -0.3515,-0.8965 -5.8088,-0.5799 -11.4981,-2.0194 -17.3206,-2.49 -1.9427,-0.1653 -3.8776,-0.4377 -5.7765,-0.8844 -2.2107,-0.4696 -4.4019,-1.066 -6.6494,-1.3364 -2.5836,-0.1931 -5.111,0.5062 -7.6563,0.82 -1.8958,0.2806 -3.8263,0.3547 -5.7331,0.1413 -3.2567,-0.2516 -6.5241,-0.2969 -9.7886,-0.3356 -2.2705,-0.056 -4.5456,-0.2502 -6.7641,-0.7542 -3.8332,-0.7293 -7.6716,-1.6904 -11.6,-1.6293 -0.2046,0.017 -0.4092,0.034 -0.6138,0.051 z"
         style="color:#000000;font-style:normal;font-variant:normal;font-weight:normal;font-stretch:normal;font-size:medium;line-height:normal;font-family:sans-serif;font-variant-ligatures:normal;font-variant-position:normal;font-variant-caps:normal;font-variant-numeric:normal;font-variant-alternates:normal;font-feature-settings:normal;text-indent:0;text-align:start;text-decoration:none;text-decoration-line:none;text-decoration-style:solid;text-decoration-color:#000000;letter-spacing:normal;word-spacing:normal;text-transform:none;writing-mode:lr-tb;direction:ltr;text-orientation:mixed;dominant-baseline:auto;baseline-shift:baseline;text-anchor:start;white-space:normal;shape-padding:0;clip-rule:nonzero;display:inline;overflow:visible;visibility:visible;opacity:1;isolation:auto;mix-blend-mode:normal;color-interpolation:sRGB;color-interpolation-filters:linearRGB;solid-color:#000000;solid-opacity:1;vector-effect:none;fill:#000000;fill-opacity:1;fill-rule:nonzero;stroke:none;stroke-width:1.4467175;stroke-linecap:round;stroke-linejoin:miter;stroke-miterlimit:4;stroke-dasharray:none;stroke-dashoffset:0;stroke-opacity:1;color-rendering:auto;image-rendering:auto;shape-rendering:auto;text-rendering:auto;enable-background:accumulate" />
      <path
         inkscape:connector-curvature="0"
         id="path1123-6-9-9-8"
         d="m -2075.3571,-1095.135 c -1.5587,0.1211 -3.1166,0.2523 -4.6788,0.3204 -4.7035,0.2423 -9.4166,0.2923 -14.1144,0.646 -4.2732,0.2844 -8.5325,0.761 -12.7697,1.3802 -3.0431,0.4046 -6.1014,0.7661 -9.0847,1.5121 -3.3968,0.7575 -6.7942,1.5865 -10.033,2.8799 -2.5041,0.9233 -5.0051,1.8589 -7.4538,2.9223 -1.7858,0.7348 -3.5377,1.5547 -5.3444,2.2371 -1.8896,0.6592 -3.7769,1.3249 -5.6395,2.0577 -3.4486,1.3339 -6.9005,2.66 -10.3828,3.9037 h 5.5139 c 7.3075,-1.4207 15.6969,-5.8313 5.4307,-1.9699 1.6272,-0.6332 3.2468,-1.3066 4.8229,-2.048 1.4968,-0.7078 3.04,-1.3091 4.5946,-1.8763 1.9624,-0.7585 3.9353,-1.4898 5.9159,-2.1994 1.712,-0.6377 3.4103,-1.3159 5.1573,-1.8547 1.7936,-0.5675 3.602,-1.0919 5.4276,-1.5466 2.6895,-0.6348 5.4403,-0.9961 8.2005,-1.1116 2.5897,-0.1605 5.1848,-0.4271 7.707,-1.0583 3.0142,-0.6903 6.0735,-1.2582 9.1721,-1.3457 3.8735,-0.1468 7.7464,-0.3259 11.623,-0.3684 1.9985,-0.023 3.9986,-0.024 5.9961,0.039 3.0496,0.2223 5.9376,1.3201 8.9358,1.8355 3.0431,0.5561 6.1154,0.9669 9.2016,1.1829 3.2935,0.1272 6.6141,-0.3009 9.8857,0.2449 3.3627,0.5714 6.4961,1.9838 9.5958,3.3497 3.1768,1.4058 6.4757,2.6082 9.9197,3.1502 8.3746,1.5561 16.8596,2.5387 25.1443,4.5599 1.222,0.2996 2.4339,0.6399 3.6344,1.0165 h 5.6844 c -2.3721,-0.9457 -4.7661,-1.8312 -7.2223,-2.5451 -5.496,-1.5383 -11.1816,-2.1744 -16.799,-3.099 -4.8342,-0.7976 -9.6728,-1.6364 -14.4053,-2.9218 -3.3203,-1.0791 -6.4684,-2.6186 -9.7839,-3.7114 -2.0985,-0.744 -4.2125,-1.5989 -6.4642,-1.7002 -3.0009,-0.1884 -6.0103,-0.2495 -9.0051,-0.5296 -2.8619,-0.2147 -5.7134,-0.5889 -8.5215,-1.186 -2.456,-0.4719 -4.9132,-0.9624 -7.3107,-1.6826 -0.8342,-0.2258 -1.6747,-0.511 -2.5502,-0.4837 z"
         style="color:#000000;font-style:normal;font-variant:normal;font-weight:normal;font-stretch:normal;font-size:medium;line-height:normal;font-family:sans-serif;font-variant-ligatures:normal;font-variant-position:normal;font-variant-caps:normal;font-variant-numeric:normal;font-variant-alternates:normal;font-feature-settings:normal;text-indent:0;text-align:start;text-decoration:none;text-decoration-line:none;text-decoration-style:solid;text-decoration-color:#000000;letter-spacing:normal;word-spacing:normal;text-transform:none;writing-mode:lr-tb;direction:ltr;text-orientation:mixed;dominant-baseline:auto;baseline-shift:baseline;text-anchor:start;white-space:normal;shape-padding:0;clip-rule:nonzero;display:inline;overflow:visible;visibility:visible;opacity:1;isolation:auto;mix-blend-mode:normal;color-interpolation:sRGB;color-interpolation-filters:linearRGB;solid-color:#000000;solid-opacity:1;vector-effect:none;fill:#000000;fill-opacity:1;fill-rule:nonzero;stroke:none;stroke-width:1.4467175;stroke-linecap:butt;stroke-linejoin:miter;stroke-miterlimit:4;stroke-dasharray:none;stroke-dashoffset:0;stroke-opacity:1;color-rendering:auto;image-rendering:auto;shape-rendering:auto;text-rendering:auto;enable-background:accumulate" />
      <path
         inkscape:connector-curvature="0"
         id="path1127-3-3-6-4"
         d="m -2074.4727,-1086.8385 c -2.6181,0.02 -5.2365,0.1446 -7.8491,0.3008 -1.3291,0.089 -2.6615,0.1446 -3.9833,0.3162 -0.4186,0.047 -0.8372,0.094 -1.2557,0.1411 v -5e-4 c -5.6186,0.6421 -11.2291,1.3698 -16.8078,2.3006 -3.2485,0.7767 -6.4431,1.7591 -9.6252,2.7694 -3.3144,1.0896 -6.6058,2.2789 -9.7782,3.7346 h 1.6128 l 1.5994,-0.4046 c 4.8866,-3.2847 0.3678,0.7646 5.8823,-1.2593 4.6216,-1.7042 9.4152,-2.9823 14.3087,-3.5916 6.2267,-0.8697 12.4796,-1.5548 18.7477,-2.0448 4.5944,-0.3194 9.2179,-0.2938 13.8002,0.1891 2.852,0.2653 5.7083,0.5731 8.509,1.1891 1.2785,0.2782 2.5668,0.5076 3.8644,0.6765 1.9748,0.2816 3.998,0.5678 5.7975,1.482 1.3105,0.6424 2.5638,1.394 3.8556,2.0717 0.8386,0.4702 1.6208,1.0391 2.326,1.6919 h 2.8065 c -1.4257,-1.4574 -2.8479,-2.9182 -4.2628,-4.3863 -0.8686,-0.858 -1.9532,-1.4716 -3.1036,-1.866 -1.6659,-0.6455 -3.3238,-1.3241 -5.04,-1.8268 -0.9721,-0.2703 -1.986,-0.3693 -2.9926,-0.3121 -1.3899,0.04 -2.7916,0.1758 -4.1724,-0.059 -3.1719,-0.3743 -6.3316,-0.9007 -9.5281,-1.0211 -1.5697,-0.078 -3.1405,-0.1032 -4.7113,-0.091 z"
         style="color:#000000;font-style:normal;font-variant:normal;font-weight:normal;font-stretch:normal;font-size:medium;line-height:normal;font-family:sans-serif;font-variant-ligatures:normal;font-variant-position:normal;font-variant-caps:normal;font-variant-numeric:normal;font-variant-alternates:normal;font-feature-settings:normal;text-indent:0;text-align:start;text-decoration:none;text-decoration-line:none;text-decoration-style:solid;text-decoration-color:#000000;letter-spacing:normal;word-spacing:normal;text-transform:none;writing-mode:lr-tb;direction:ltr;text-orientation:mixed;dominant-baseline:auto;baseline-shift:baseline;text-anchor:start;white-space:normal;shape-padding:0;clip-rule:nonzero;display:inline;overflow:visible;visibility:visible;opacity:1;isolation:auto;mix-blend-mode:normal;color-interpolation:sRGB;color-interpolation-filters:linearRGB;solid-color:#000000;solid-opacity:1;vector-effect:none;fill:#000000;fill-opacity:1;fill-rule:nonzero;stroke:none;stroke-width:1.4467175;stroke-linecap:butt;stroke-linejoin:miter;stroke-miterlimit:4;stroke-dasharray:none;stroke-dashoffset:0;stroke-opacity:1;color-rendering:auto;image-rendering:auto;shape-rendering:auto;text-rendering:auto;enable-background:accumulate" />
      <path
         id="path1387-0-4"
         d="m -2203.9184,-1165.8483 h 1068.4639 c 10.8468,0 19.5791,7.4849 19.5791,16.7822 v 55.0082 c 0,9.2973 -8.7323,16.7821 -19.5791,16.7821 h -1068.4639 c -10.8469,0 -19.5792,-7.4848 -19.5792,-16.7821 v -55.0082 c 0,-9.2973 8.7323,-16.7822 19.5792,-16.7822 z"
         style="opacity:1;fill:none;fill-opacity:0.95686275;stroke:#000000;stroke-width:2.17007637;stroke-linecap:butt;stroke-linejoin:miter;stroke-miterlimit:4;stroke-dasharray:none;stroke-dashoffset:0;stroke-opacity:1"
         inkscape:connector-curvature="0" />
      <path
         inkscape:connector-curvature="0"
         id="path1088-2-1-7-1-3"
         d="m -2132.1073,-1164.473 c -10.7186,1.4595 -21.4256,3.0105 -32.1288,4.5692 -10.0908,1.4466 -20.1618,3.0267 -30.2415,4.5465 -9.1223,1.2697 -18.2822,2.262 -27.401,3.5564 -0.1793,0.6148 -0.3157,1.2446 -0.4139,1.8846 0.2662,-0.038 0.5329,-0.073 0.7989,-0.1111 8.7171,-1.2167 17.411,-2.5944 26.0972,-4.0111 11.074,-1.4867 22.1807,-2.7255 33.2315,-4.3832 15.3448,-2.0879 30.6962,-4.1346 46.0634,-6.0513 z m 209.7066,0 c 5.156,0.5477 10.3124,1.0889 15.4714,1.6071 9.4653,1.0357 18.8682,2.5626 28.2401,4.2308 11.2656,1.8835 22.6085,3.2513 33.922,4.8064 14.7964,1.9582 29.6341,3.6559 44.5285,4.6643 10.1871,0.766 20.4039,1.0437 30.6178,1.0894 11.9555,0.1746 23.9121,0.2656 35.8676,0.4315 6.7854,0.1947 13.5437,0.9599 20.3352,1.0082 17.8394,0.3049 35.6171,-1.5311 53.4339,-2.0686 16.9904,-0.6514 33.9996,-1.0529 51.0011,-0.632 10.2611,0.1856 20.5333,0.1541 30.7795,-0.4837 11.2166,-0.503 22.4249,-1.1733 33.6253,-1.9565 8.2538,-0.497 16.5108,-1.0999 24.6962,-2.3022 8.8315,-1.1094 17.6457,-2.3495 26.4568,-3.608 7.986,-1.0483 16.0459,-1.5696 24.1013,-1.4237 22.848,0 45.695,-0.2668 68.5431,-0.2382 13.3175,0.02 26.6369,0.082 39.9501,0.4521 19.2055,0.6607 38.3788,2.5604 57.2988,5.9495 6.4821,1.0566 12.9705,2.177 19.3771,3.59 6.8127,1.4151 13.7208,2.2794 20.6669,2.6841 20.509,1.024 40.9877,-1.4967 61.2035,-4.7243 5.8395,-0.942 11.6809,-1.8764 17.5075,-2.8949 7.4311,-1.4212 14.718,-3.49 22.1247,-5.0255 8.5,-1.8061 17.047,-3.3892 25.5551,-5.1558 h -10.0898 c -8.0754,1.6122 -16.1501,3.2273 -24.273,4.5832 -6.4206,1.0034 -12.8523,1.981 -19.1905,3.4339 -9.6032,2.0567 -19.2229,4.0889 -28.9492,5.4813 -15.9035,2.2269 -32.0141,3.0089 -48.0565,2.25 -7.9099,-0.3929 -15.7637,-1.6111 -23.4771,-3.3843 -4.8805,-1.0559 -9.7043,-2.3672 -14.6172,-3.2721 -8.68,-1.6281 -17.4592,-2.6511 -26.2356,-3.5947 -26.7322,-2.7243 -53.6401,-2.5872 -80.4772,-2.3879 -24.2233,0.1472 -48.4499,0.1657 -72.6685,0.7012 -9.8989,0.6475 -19.604,2.8845 -29.4716,3.8168 -22.9022,2.6273 -45.9536,3.6354 -68.9896,4.1274 -15.5141,0.3537 -31.0283,0.69 -46.5418,1.0697 -13.5961,0.3269 -27.1968,0.6074 -40.7774,1.3684 -15.4404,0.8124 -30.8783,1.7718 -46.3413,2.0283 -9.3895,0.1919 -18.7843,0.5298 -28.1745,0.1757 -3.8931,-0.1456 -7.7859,-0.2836 -11.68,-0.4004 -10.754,-0.3645 -21.4933,-1.0539 -32.2316,-1.7235 -12.2956,-0.7092 -24.5946,-1.5628 -36.807,-3.1972 -17.365,-2.1074 -34.6635,-4.7326 -52.0341,-6.7934 -8.2435,-0.9004 -16.5101,-1.6209 -24.7111,-2.8721 -3.1073,-0.4514 -6.2111,-0.9285 -9.3142,-1.4103 z"
         style="color:#000000;font-style:normal;font-variant:normal;font-weight:normal;font-stretch:normal;font-size:medium;line-height:normal;font-family:sans-serif;font-variant-ligatures:normal;font-variant-position:normal;font-variant-caps:normal;font-variant-numeric:normal;font-variant-alternates:normal;font-feature-settings:normal;text-indent:0;text-align:start;text-decoration:none;text-decoration-line:none;text-decoration-style:solid;text-decoration-color:#000000;letter-spacing:normal;word-spacing:normal;text-transform:none;writing-mode:lr-tb;direction:ltr;text-orientation:mixed;dominant-baseline:auto;baseline-shift:baseline;text-anchor:start;white-space:normal;shape-padding:0;clip-rule:nonzero;display:inline;overflow:visible;visibility:visible;opacity:1;isolation:auto;mix-blend-mode:normal;color-interpolation:sRGB;color-interpolation-filters:linearRGB;solid-color:#000000;solid-opacity:1;vector-effect:none;fill:#000000;fill-opacity:1;fill-rule:nonzero;stroke:none;stroke-width:1.4467175;stroke-linecap:butt;stroke-linejoin:miter;stroke-miterlimit:4;stroke-dasharray:none;stroke-dashoffset:0;stroke-opacity:1;color-rendering:auto;image-rendering:auto;shape-rendering:auto;text-rendering:auto;enable-background:accumulate" />
      <path
         inkscape:connector-curvature="0"
         id="path1085-6-1-8-9-5"
         d="m -2036.543,-1154.7539 c -18.9519,0.4118 -37.9186,0.2931 -56.8567,1.2276 -19.2533,0.78 -38.4798,2.2759 -57.6098,4.5949 -24.5779,2.7436 -49.1338,5.6792 -73.6897,8.6111 -0.1268,0.5863 -0.1461,1.188 -0.1758,1.7851 6.614,-0.418 13.1696,-1.4311 19.7584,-2.1065 34.1754,-4.009 68.3365,-8.3905 102.6966,-10.5075 16.5554,-0.7821 33.1526,-0.607 49.6923,0.4419 7.7558,0.4129 15.4972,1.1491 23.2659,1.2796 7.8209,-0.096 15.6557,-0.353 23.4652,0.2224 9.2624,0.3881 18.5605,0.1118 27.7908,1.1154 8.3198,0.81 16.6089,1.8999 24.9204,2.7864 36.5574,4.3013 72.9349,10.0292 109.533,13.9973 22.1358,2.257 44.3945,2.9439 66.6319,3.2412 17.6867,0.2943 35.3844,0.6111 53.0679,0 11.9591,-0.5301 23.8739,-1.8918 35.8504,-2.061 5.6348,-0.1146 11.27,0.072 16.9051,5e-4 22.9109,-0.1419 45.8093,-0.979 68.7056,-1.7447 18.2486,-0.6797 36.5197,-1.3756 54.6755,-3.4357 24.0605,-2.5992 48.0235,-6.2889 72.2112,-7.564 17.3182,-1.0008 34.6555,-1.7042 52.0009,-1.9783 13.4913,-0.1778 26.9951,0.1091 40.4507,1.1411 10.7131,0.7784 21.3914,1.9595 32.0581,3.2081 24.5075,2.6308 49.0815,4.6489 73.5393,7.7349 6.3986,0.756 12.7972,1.5921 19.2363,1.9114 11.0356,0.404 22.0649,-0.4237 33.0634,-1.2342 21.259,-1.8566 42.2194,-6.0219 63.136,-10.1127 5.5232,-1.0637 11.072,-1.9895 16.5892,-3.0846 5.9536,-1.0518 11.9087,-2.0961 17.8413,-3.2619 2.9729,-0.5761 5.9767,-1.0817 8.8574,-2.0359 0.5531,-0.2257 1.2241,-0.3948 1.5767,-0.9092 0.509,-1.0117 -0.5759,-2.3104 -1.666,-2.0409 -5.8963,0.8137 -11.663,2.3279 -17.4721,3.5912 -5.3091,1.2686 -10.6117,2.5691 -15.9577,3.6764 -4.5165,0.99 -9.0268,2.0142 -13.5789,2.8314 -21.5316,4.0825 -43.1432,8.0369 -65.0154,9.7559 -12.3458,0.9429 -24.8001,0.8719 -37.0872,-0.7524 -7.514,-0.942 -15.0151,-1.9908 -22.5444,-2.8085 -6.8772,-0.7727 -13.7744,-1.3566 -20.6795,-1.8125 -22.4116,-1.7511 -44.7832,-3.9748 -67.1351,-6.3624 -16.7891,-1.6871 -33.6836,-2.8808 -50.5622,-2.0892 -11.8178,0.4806 -23.6247,1.1915 -35.4313,1.8894 -20.418,1.2694 -40.8259,2.8257 -61.1506,5.1762 -16.5275,2.1304 -33.0269,4.7702 -49.6997,5.4626 -32.7981,1.8207 -65.666,1.5629 -98.4775,3.03 -7.9328,0.3342 -15.8592,0.8012 -23.7871,1.2297 -26.1486,1.202 -52.3418,1.5285 -78.5087,0.7684 -13.3525,-0.3482 -26.7034,-0.7876 -40.0462,-1.4089 -19.2422,-0.9468 -38.4624,-2.5478 -57.5475,-5.2069 -41.8792,-5.3863 -83.7318,-10.993 -125.6701,-15.9071 -7.8551,-0.8742 -15.7429,-1.4154 -23.635,-1.8155 -4.5063,-0.2731 -9.0191,-0.5105 -13.5353,-0.4667 z"
         style="color:#000000;font-style:normal;font-variant:normal;font-weight:normal;font-stretch:normal;font-size:medium;line-height:normal;font-family:sans-serif;font-variant-ligatures:normal;font-variant-position:normal;font-variant-caps:normal;font-variant-numeric:normal;font-variant-alternates:normal;font-feature-settings:normal;text-indent:0;text-align:start;text-decoration:none;text-decoration-line:none;text-decoration-style:solid;text-decoration-color:#000000;letter-spacing:normal;word-spacing:normal;text-transform:none;writing-mode:lr-tb;direction:ltr;text-orientation:mixed;dominant-baseline:auto;baseline-shift:baseline;text-anchor:start;white-space:normal;shape-padding:0;clip-rule:nonzero;display:inline;overflow:visible;visibility:visible;opacity:1;isolation:auto;mix-blend-mode:normal;color-interpolation:sRGB;color-interpolation-filters:linearRGB;solid-color:#000000;solid-opacity:1;vector-effect:none;fill:#000000;fill-opacity:1;fill-rule:nonzero;stroke:none;stroke-width:1.4467175;stroke-linecap:butt;stroke-linejoin:miter;stroke-miterlimit:4;stroke-dasharray:none;stroke-dashoffset:0;stroke-opacity:1;color-rendering:auto;image-rendering:auto;shape-rendering:auto;text-rendering:auto;enable-background:accumulate" />
      <path
         inkscape:connector-curvature="0"
         id="path1090-5-2-3-5-5"
         d="m -1117.7207,-1140.4805 c -17.591,3.098 -35.2347,5.89 -52.81,9.0781 -7.4177,1.3301 -14.8225,2.7337 -22.2056,4.2442 15.8815,-1.5065 31.6285,-4.116 47.3685,-6.6614 9.1228,-1.5548 18.2197,-3.2811 27.3893,-4.5437 0.523,-0.056 0.5108,-0.7384 0.4999,-1.1454 -0.037,-0.3105 -0.027,-0.6586 -0.1132,-0.9444 -0.038,-0.023 -0.084,-0.045 -0.1289,-0.027 z m -964.0176,2.5371 c -6.5125,0.064 -13.0224,0.3046 -19.528,0.6032 -25.5098,1.2055 -50.9236,3.9184 -76.2339,7.2638 -15.8677,2.0131 -31.7355,4.0262 -47.6033,6.0393 0,0.6536 0,1.3073 0,1.9609 39.9822,-4.7451 79.9153,-10.1282 120.0916,-12.9969 27.8032,-1.5836 55.6608,-0.7529 83.4831,-0.2832 35.1459,0.7229 70.2755,2.5414 105.2834,5.7618 30.1132,2.6311 60.1522,6.0301 90.2476,8.8475 25.3123,2.1408 50.7226,2.6584 76.1088,3.1848 15.5505,0.2976 31.1077,0.3492 46.6573,-0.034 12.9245,-0.2656 25.846,-0.6981 38.7729,-0.8303 28.0704,-0.099 56.1243,1.2338 84.1946,1.1318 12.4061,-0.092 24.8134,-0.8204 37.1246,-2.3759 8.305,-1.0131 16.556,-2.4171 24.8484,-3.5207 0.857,-0.097 1.7147,-0.1875 2.5724,-0.2777 -5.0068,-0.8665 -10.0702,0.02 -15.0734,0.4409 -16.1081,1.7533 -32.2305,3.7694 -48.4554,3.9261 -25.6116,0.6448 -51.2092,-0.7884 -76.8137,-1.1225 -10.4296,-0.1243 -20.8602,0.045 -31.2851,0.3599 -17.184,0.466 -34.3768,1.0677 -51.568,0.6191 -13.1043,-0.2473 -26.2063,-0.6061 -39.3067,-1.0027 -19.0341,-0.6562 -38.0443,-1.9677 -56.9927,-3.8833 -58.3718,-5.4877 -116.7651,-11.5043 -175.4109,-13.0285 -23.6987,-0.6357 -47.4073,-0.7866 -71.1136,-0.7836 z m 696.4961,8.6836 c -29.7747,0.2985 -59.5139,1.9038 -89.2485,3.357 -8.9896,0.4917 -17.9738,1.0854 -26.9468,1.8208 16.9626,0.1552 33.9333,0.1524 50.8853,-0.5394 24.6807,-0.7143 49.3558,-1.6478 74.0431,-2.11 22.4972,-0.1083 45.0772,0.7256 67.3231,4.2871 9.8005,1.5085 19.5424,3.6948 29.4855,4.02 7.708,0.1941 15.3994,-0.4791 23.0927,-0.8378 5.8336,-0.3163 11.6625,-0.7946 17.4458,-1.6362 5.589,-0.7412 11.1631,-1.5913 16.7538,-2.3205 -7.9119,0.6949 -15.8452,1.1403 -23.785,1.3386 -14.3718,0.6589 -28.8119,1.7874 -43.1714,0.3035 -10.6552,-1.117 -21.1366,-3.464 -31.7868,-4.6215 -21.2554,-2.5765 -42.6998,-3.1204 -64.0908,-3.0616 z"
         style="color:#000000;font-style:normal;font-variant:normal;font-weight:normal;font-stretch:normal;font-size:medium;line-height:normal;font-family:sans-serif;font-variant-ligatures:normal;font-variant-position:normal;font-variant-caps:normal;font-variant-numeric:normal;font-variant-alternates:normal;font-feature-settings:normal;text-indent:0;text-align:start;text-decoration:none;text-decoration-line:none;text-decoration-style:solid;text-decoration-color:#000000;letter-spacing:normal;word-spacing:normal;text-transform:none;writing-mode:lr-tb;direction:ltr;text-orientation:mixed;dominant-baseline:auto;baseline-shift:baseline;text-anchor:start;white-space:normal;shape-padding:0;clip-rule:nonzero;display:inline;overflow:visible;visibility:visible;opacity:1;isolation:auto;mix-blend-mode:normal;color-interpolation:sRGB;color-interpolation-filters:linearRGB;solid-color:#000000;solid-opacity:1;vector-effect:none;fill:#000000;fill-opacity:1;fill-rule:nonzero;stroke:none;stroke-width:1.4467175;stroke-linecap:butt;stroke-linejoin:miter;stroke-miterlimit:4;stroke-dasharray:none;stroke-dashoffset:0;stroke-opacity:1;color-rendering:auto;image-rendering:auto;shape-rendering:auto;text-rendering:auto;enable-background:accumulate" />
      <path
         inkscape:connector-curvature="0"
         id="rect1083-0-3-6-6-1"
         d="m -1302.3829,-1092.5504 c -1.6965,0.01 -3.3931,0.071 -5.087,0.2041 -5.8542,0.4925 -11.7195,0.8482 -17.5928,1.001 -8.1474,0.4243 -16.3084,0.3453 -24.4636,0.4243 v -5e-4 c -0.7778,0.059 -1.5555,0.1192 -2.3332,0.1783 2.6345,0.3386 5.2902,0.467 7.9437,0.54 7.9022,0 15.7541,0.9842 23.6203,1.6081 5.1184,0.259 10.1843,1.0704 15.2807,1.5653 6.6912,0.7137 13.4132,0.059 20.1094,-0.2046 1.4935,-0.183 3.0264,0.1127 4.4958,-0.2698 1.0781,-0.111 1.7145,-1.5889 0.9597,-2.3993 -0.5415,-0.417 -1.2917,-0.4576 -1.9384,-0.6423 -3.2474,-0.6149 -6.5466,-0.8896 -9.8242,-1.2935 -3.7054,-0.4532 -7.4381,-0.7243 -11.1704,-0.7111 z m -112.8464,0.6594 c -22.7801,-0.021 -45.5607,0.2381 -68.3312,0.9126 -26.917,0.6397 -53.7888,2.5625 -80.5811,5.1796 -9.1709,0.9577 -18.3643,1.7174 -27.5105,2.898 -7.7362,0.9188 -15.3599,2.6241 -22.8332,4.8074 h 7.6398 c 3.4744,-0.7764 6.9774,-1.4286 10.495,-1.9735 15.1978,-2.2414 30.4996,-3.6746 45.7967,-5.04 44.1809,-3.9588 88.568,-4.4377 132.8927,-5.0415 17.067,-0.46 34.1588,0.2929 51.2103,-0.7731 -8.656,-0.5377 -17.328,-0.7558 -25.999,-0.8604 -7.5928,-0.064 -15.1861,-0.1022 -22.7795,-0.1091 z"
         style="opacity:1;fill:#000000;fill-opacity:0.95686275;stroke:none;stroke-width:2.17007637;stroke-linecap:butt;stroke-linejoin:miter;stroke-miterlimit:4;stroke-dasharray:none;stroke-dashoffset:0;stroke-opacity:1" />
      <path
         sodipodi:nodetypes="ccccccccccccccccccccccccccc"
         inkscape:connector-curvature="0"
         id="path1345-2-3"
         d="m -1729.3673,-1086.4217 c -14.5482,-0.026 -29.0971,-0.1025 -43.6455,-0.038 -4.4253,0.044 -8.8691,0.057 -13.2676,-0.2125 -4.5617,-0.224 -9.1936,-0.2299 -13.6728,-0.7446 -3.6953,-0.3735 -7.4067,-0.7104 -11.1347,-1.0015 -5.0049,-0.4321 -10.0637,-0.9204 -14.6783,-1.9729 7.5656,0.5894 15.0495,1.4228 22.6739,1.8356 4.1406,0.169 8.3257,0.2284 12.3889,0.6781 4.467,0.4045 9.0334,0.3926 13.5474,0.5992 5.2482,0.205 10.5179,0.1992 15.7789,0.2559 11.7552,0.07 23.5098,-0.067 35.2646,-0.097 3.3276,-0.015 6.6462,-0.1869 9.9121,-0.487 10.6634,-0.8685 21.264,-1.9442 31.6424,-3.4026 7.7882,-1.0276 15.987,-1.1942 24.0062,-0.8359 7.2535,0.2865 14.512,0.6105 21.6805,1.2242 8.5203,0.7076 19.9055,-3.4148 28.4941,-2.8972 8.6925,0.4717 17.455,0.4521 26.1904,0.5232 5.1128,0.027 10.2261,0.04 15.3391,0.057 -5.3832,0.4536 -10.8637,0.5339 -16.3166,0.6112 -9.3209,0.086 -18.6518,-0.1531 -27.9102,-0.6638 -10.1664,-0.7204 -23.0986,3.1292 -33.3008,2.5104 -7.473,-0.5028 -15.0594,-0.6711 -22.5898,-0.3921 -4.3414,0.12 -8.6289,0.4905 -12.8797,0.9094 -5.0356,0.4198 -10.137,0.6699 -15.1155,1.2368 -9.3757,0.9472 -18.7531,2.0523 -28.3657,2.2729 -1.3463,0.027 -2.6938,0.04 -4.0413,0.031 z"
         style="color:#000000;font-style:normal;font-variant:normal;font-weight:normal;font-stretch:normal;font-size:medium;line-height:normal;font-family:sans-serif;font-variant-ligatures:normal;font-variant-position:normal;font-variant-caps:normal;font-variant-numeric:normal;font-variant-alternates:normal;font-feature-settings:normal;text-indent:0;text-align:start;text-decoration:none;text-decoration-line:none;text-decoration-style:solid;text-decoration-color:#000000;letter-spacing:normal;word-spacing:normal;text-transform:none;writing-mode:lr-tb;direction:ltr;text-orientation:mixed;dominant-baseline:auto;baseline-shift:baseline;text-anchor:start;white-space:normal;shape-padding:0;clip-rule:nonzero;display:inline;overflow:visible;visibility:visible;opacity:1;isolation:auto;mix-blend-mode:normal;color-interpolation:sRGB;color-interpolation-filters:linearRGB;solid-color:#000000;solid-opacity:1;vector-effect:none;fill:#000000;fill-opacity:1;fill-rule:nonzero;stroke:none;stroke-width:0.842713;stroke-linecap:butt;stroke-linejoin:miter;stroke-miterlimit:4;stroke-dasharray:none;stroke-dashoffset:0;stroke-opacity:1;color-rendering:auto;image-rendering:auto;shape-rendering:auto;text-rendering:auto;enable-background:accumulate" />
      <path
         inkscape:connector-curvature="0"
         id="path1092-9-3-3-5-0"
         d="m -1118.0391,-1131.209 c -8.0898,2.151 -16.3123,3.8711 -24.2068,6.699 -6.0872,2.1301 -12.0856,4.5024 -18.1125,6.7949 -11.3432,4.4095 -22.5846,9.1408 -34.2408,12.6837 -10.4011,3.0797 -21.2245,4.8513 -32.0856,4.8156 -9.5684,0.025 -19.1056,-1.2641 -28.4235,-3.3901 -25.0561,-5.0722 -50.6404,-6.8803 -76.1545,-7.5828 -24.6004,-0.6396 -49.2104,-0.272 -73.8148,-0.1781 -28.2264,0.1766 -56.453,0.3183 -84.679,0.549 -4.035,0.066 -8.064,0.4886 -12.0174,1.3028 -5.4583,1.0059 -10.9061,2.1307 -16.4381,2.6564 -17.26,2.1609 -34.6024,3.8551 -52.0033,4.2087 -32.1684,1.0082 -64.3562,1.3163 -96.5177,2.5556 -11.7038,0.4537 -23.401,1.0675 -35.091,1.793 -8.7257,0.4798 -17.4702,0.5261 -26.2049,0.3088 -12.5841,-0.2283 -25.1658,-0.5733 -37.7489,-0.8482 -27.5519,-0.6958 -55.1804,-2.0806 -82.3914,-6.6975 -9.1514,-1.5517 -18.2309,-3.5171 -27.212,-5.86 -11.9054,-3.0049 -23.7626,-6.3353 -35.9162,-8.2066 -7.9313,-1.1871 -15.9576,-1.5346 -23.9669,-1.6816 -17.9798,-0.5018 -35.9674,-0.8201 -53.9547,-0.7028 -19.4752,0.1424 -38.9444,0.8406 -58.3854,1.9945 -29.7797,1.6544 -59.5392,3.7509 -89.2265,6.6348 -4.3653,0.4619 -8.7193,1.0222 -13.0733,1.5787 19.1074,-0.4176 38.1178,-2.5777 57.1987,-3.5065 44.2429,-2.7592 88.5551,-5.4705 132.9065,-4.6066 16.2191,0.3122 32.4776,0.5042 48.613,2.3425 13.2385,1.7401 26.0271,5.7077 38.936,8.9712 12.3132,3.1696 24.7556,5.9601 37.3937,7.4666 15.3496,1.9251 30.8091,2.7495 46.2548,3.4506 15.8601,0.6566 31.7315,1.0028 47.6026,1.2554 22.3681,0.2323 44.739,-0.3814 67.0756,-1.5554 47.2243,-2.0481 94.5769,-1.0983 141.7132,-5.0698 10.5763,-0.8896 21.1212,-2.1131 31.6481,-3.4584 10.9956,-1.3183 22.0617,-2.2461 33.1448,-2.0892 45.4663,-0.3124 90.9401,-1.6392 136.4047,-0.4725 21.2842,0.5793 42.5658,2.14 63.6257,5.3348 5.6319,0.8468 11.2359,1.8648 16.8295,2.9328 8.3339,1.5506 16.777,2.9062 25.2824,2.6576 15.4494,-0.3141 30.5974,-4.1281 45.1266,-9.1738 12.7744,-4.4072 25.2597,-9.5908 37.8586,-14.465 5.6209,-2.2019 11.1801,-4.5566 16.767,-6.8419 2.8439,-1.1081 5.7736,-1.9626 8.7064,-2.8014 0.1249,-0.3162 -0.4284,0.043 -0.6095,0.031 -0.2044,0.057 -0.4088,0.1135 -0.6132,0.1703 z m -1047.7851,20.7227 c -10.1159,0.5663 -20.2191,1.4277 -30.3533,1.6098 -5.8846,0.1749 -11.7752,0.121 -17.6577,0.3592 -3.2148,0.2275 -6.4076,0.693 -9.5808,1.2478 -0.1855,1.6852 -0.013,3.3872 -0.084,5.0742 0.1621,0.2177 0.528,0.019 0.776,0.076 6.7658,-0.1381 13.4602,-1.284 20.0711,-2.6559 8.1052,-1.4335 16.2326,-2.7442 24.378,-3.9264 4.6123,-0.5905 9.2602,-0.9345 13.8354,-1.7903 -0.4615,0 -0.9231,0 -1.3847,0.01 z"
         style="color:#000000;font-style:normal;font-variant:normal;font-weight:normal;font-stretch:normal;font-size:medium;line-height:normal;font-family:sans-serif;font-variant-ligatures:normal;font-variant-position:normal;font-variant-caps:normal;font-variant-numeric:normal;font-variant-alternates:normal;font-feature-settings:normal;text-indent:0;text-align:start;text-decoration:none;text-decoration-line:none;text-decoration-style:solid;text-decoration-color:#000000;letter-spacing:normal;word-spacing:normal;text-transform:none;writing-mode:lr-tb;direction:ltr;text-orientation:mixed;dominant-baseline:auto;baseline-shift:baseline;text-anchor:start;white-space:normal;shape-padding:0;clip-rule:nonzero;display:inline;overflow:visible;visibility:visible;opacity:1;isolation:auto;mix-blend-mode:normal;color-interpolation:sRGB;color-interpolation-filters:linearRGB;solid-color:#000000;solid-opacity:1;vector-effect:none;fill:#000000;fill-opacity:1;fill-rule:nonzero;stroke:none;stroke-width:1.4467175;stroke-linecap:butt;stroke-linejoin:miter;stroke-miterlimit:4;stroke-dasharray:none;stroke-dashoffset:0;stroke-opacity:1;color-rendering:auto;image-rendering:auto;shape-rendering:auto;text-rendering:auto;enable-background:accumulate" />
    </g>
  </g>
</svg>
